<svg xmlns="http://www.w3.org/2000/svg" viewBox="0 0 256 256" role="img" aria-labelledby="title desc">
  <title id="title">Lantern</title>
  <desc id="desc">A warm lantern mark with a small page-shaped flame.</desc>
  <defs>
    <radialGradient id="glow" cx="50%" cy="58%" r="48%">
      <stop offset="0" stop-color="#fff2bd" stop-opacity="0.95"/>
      <stop offset="0.42" stop-color="#f4d27a" stop-opacity="0.42"/>
      <stop offset="1" stop-color="#f4d27a" stop-opacity="0"/>
    </radialGradient>
    <linearGradient id="frame" x1="60" y1="34" x2="196" y2="224" gradientUnits="userSpaceOnUse">
      <stop stop-color="#f8df91"/>
      <stop offset="0.52" stop-color="#d79a43"/>
      <stop offset="1" stop-color="#6f4b29"/>
    </linearGradient>
    <linearGradient id="glass" x1="79" y1="85" x2="177" y2="198" gradientUnits="userSpaceOnUse">
      <stop stop-color="#273241"/>
      <stop offset="1" stop-color="#101722"/>
    </linearGradient>
    <filter id="softShadow" x="-20%" y="-10%" width="140%" height="130%" color-interpolation-filters="sRGB">
      <feDropShadow dx="0" dy="16" stdDeviation="12" flood-color="#03050a" flood-opacity="0.34"/>
      <feDropShadow dx="0" dy="0" stdDeviation="14" flood-color="#f4d27a" flood-opacity="0.16"/>
    </filter>
  </defs>

  <circle cx="128" cy="142" r="94" fill="url(#glow)"/>
  <g filter="url(#softShadow)">
    <path d="M106 43c0-9 7-16 16-16h12c9 0 16 7 16 16v8h-16v-7c0-2-1-3-3-3h-6c-2 0-3 1-3 3v7h-12v-8Z" fill="url(#frame)"/>
    <path d="M86 63h84l12 27H74l12-27Z" fill="#121823" stroke="url(#frame)" stroke-width="8" stroke-linejoin="round"/>
    <path d="M80 88h96l-11 110c-1 10-9 18-20 18h-34c-11 0-19-8-20-18L80 88Z" fill="url(#glass)" stroke="url(#frame)" stroke-width="9" stroke-linejoin="round"/>
    <path d="M105 94h46l-5 96c0 4-3 7-7 7h-22c-4 0-7-3-7-7l-5-96Z" fill="#0d121b" opacity="0.42"/>
    <path d="M128 110c17 18 28 36 28 54 0 18-12 30-28 30s-28-12-28-30c0-18 11-36 28-54Z" fill="#f4c56d"/>
    <path d="M128 129c10 11 16 22 16 33 0 10-6 17-16 17s-16-7-16-17c0-11 6-22 16-33Z" fill="#fff0b4"/>
    <path d="M120 142c5-6 11-12 20-17-3 13-2 27 5 40-12-4-20-12-25-23Z" fill="#fff8d6" opacity="0.82"/>
    <path d="M74 206h108" stroke="url(#frame)" stroke-width="10" stroke-linecap="round"/>
    <path d="M92 222h72" stroke="#76502c" stroke-width="8" stroke-linecap="round"/>
  </g>
</svg>
