<svg xmlns="http://www.w3.org/2000/svg" viewBox="0 0 256 256">
  <defs>
    <linearGradient id="bg" x1="38" y1="28" x2="218" y2="232" gradientUnits="userSpaceOnUse">
      <stop stop-color="#151b24"/>
      <stop offset="1" stop-color="#080c13"/>
    </linearGradient>
    <linearGradient id="frame" x1="72" y1="44" x2="184" y2="218" gradientUnits="userSpaceOnUse">
      <stop stop-color="#f8df91"/>
      <stop offset="0.55" stop-color="#d79a43"/>
      <stop offset="1" stop-color="#6f4b29"/>
    </linearGradient>
  </defs>
  <rect width="256" height="256" rx="56" fill="url(#bg)"/>
  <circle cx="128" cy="145" r="82" fill="#f4d27a" opacity="0.12"/>
  <path d="M106 45c0-9 7-16 16-16h12c9 0 16 7 16 16v8h-16v-7c0-2-1-3-3-3h-6c-2 0-3 1-3 3v7h-12v-8Z" fill="url(#frame)"/>
  <path d="M86 64h84l12 27H74l12-27Z" fill="#111720" stroke="url(#frame)" stroke-width="8" stroke-linejoin="round"/>
  <path d="M80 89h96l-11 110c-1 10-9 18-20 18h-34c-11 0-19-8-20-18L80 89Z" fill="#101722" stroke="url(#frame)" stroke-width="9" stroke-linejoin="round"/>
  <path d="M128 111c17 18 28 36 28 54 0 18-12 30-28 30s-28-12-28-30c0-18 11-36 28-54Z" fill="#f4c56d"/>
  <path d="M128 130c10 11 16 22 16 33 0 10-6 17-16 17s-16-7-16-17c0-11 6-22 16-33Z" fill="#fff0b4"/>
  <path d="M120 143c5-6 11-12 20-17-3 13-2 27 5 40-12-4-20-12-25-23Z" fill="#fff8d6" opacity="0.82"/>
  <path d="M74 207h108" stroke="url(#frame)" stroke-width="10" stroke-linecap="round"/>
</svg>
